<svg id="Layer_1" data-name="Layer 1" xmlns="http://www.w3.org/2000/svg" viewBox="0 0 356.12 99.42"><defs><style>.cls-1{fill:#fff;}.cls-2{fill:#ea0029;}.cls-3{fill:#1d1d1b;}.cls-4{fill:#010101;}</style></defs><title>DMT H</title><path class="cls-1" d="M543.71,276.05a1.06,1.06,0,0,1-.39.37,1.53,1.53,0,0,1-.91.21,1,1,0,0,1-.88-.45,15.43,15.43,0,0,1-1.7-3.34c-.58-1.38-.48-1.16-1.33-3.24a18.81,18.81,0,0,0-1.56-3.12,7.47,7.47,0,0,0-2.2-1.86,6.53,6.53,0,0,0-2-.43,12.38,12.38,0,0,0-3.28.27,3.42,3.42,0,0,0-1.64.87,1.64,1.64,0,0,1-.5.43,5.58,5.58,0,0,0-1.48.81,1.85,1.85,0,0,0-.4,2.85l0,0c0-.36,0-.68.08-.66a2.65,2.65,0,0,0,1.61.3c.68-.1,1.12.94,1.12.94l.11-.3a2.53,2.53,0,0,0,.4.8,1,1,0,0,0,.1-.16c.21.26.54.43.57.85a1.63,1.63,0,0,1-.65,1.18c-.19.17-1.27,1.06-2.42,2.24-.6.61-.9,1-1.5,1.63a1.46,1.46,0,0,1-.9.57h-.14a1.08,1.08,0,0,1-.76-.34l-8.76-11.58c5.07-5,13.48-5.77,15.58-5.62.5,0,1.05.43.43,1.23a7.53,7.53,0,0,1,5.6,0c-.62-.8-.06-1.2.43-1.23,2.08-.15,10.08.22,15.66,5.74-2.73,3.61-6.38,8.18-8.34,11m24.69,15.09c.18-18.71-3.93-29.18-7.5-34.33,1.22-1.6,2-2.59,2-2.64a3.66,3.66,0,0,1,2.25-1.1,40.54,40.54,0,0,1,1.27-5.4,29.6,29.6,0,0,1-4.77,2.77,3.27,3.27,0,0,1-.46,2.46c0,.06-.61.83-1.56,2.08a22.5,22.5,0,0,0-6-5c-.64-.36-1.32-.71-2.06-1a3.49,3.49,0,0,0-1-2.63,1.92,1.92,0,0,0-1.11-1.53h0a2.43,2.43,0,0,0-2,.55,4.47,4.47,0,0,0-2.67,1.45,49.68,49.68,0,0,0-7.5-1,4.42,4.42,0,0,0-2.34-2.94,2.46,2.46,0,0,0-1.83-1.24h0a2.43,2.43,0,0,0-1.83,1.24,4.36,4.36,0,0,0-2.34,2.94,49.65,49.65,0,0,0-7.51,1,4.44,4.44,0,0,0-2.66-1.45,2.44,2.44,0,0,0-2-.55h0a1.88,1.88,0,0,0-1.1,1.53,3.46,3.46,0,0,0-1,2.63c-.74.33-1.42.68-2.06,1a19.72,19.72,0,0,0-5.93,4.95c-.86-1.14-1.37-1.82-1.41-1.89a3.28,3.28,0,0,1-.47-2.45,31,31,0,0,1-4.77-2.77,39.81,39.81,0,0,1,1.28,5.4,3.61,3.61,0,0,1,2.25,1.1c.05,0,.7.91,1.78,2.33-3.58,5.11-7.75,15.67-7.57,34.5,0,1.74-.73,18.05,4.59,29.05a26.14,26.14,0,0,0,5.1,6.8A19.42,19.42,0,0,0,516,331.7l.39.1c4,1.09,7.44.47,8.82-.34l-.2.5c0,.13-.13.33-.18.44-.74,2-.24,4.12,2.49,4.44a7,7,0,0,1,2.47.55,7.43,7.43,0,0,1,2.22,1.65,10.5,10.5,0,0,1,1.4,2h0a9.66,9.66,0,0,1,1.4-2,7.53,7.53,0,0,1,2.21-1.65,7.08,7.08,0,0,1,2.47-.55c2.74-.32,3.24-2.41,2.49-4.43,0-.11-.13-.32-.18-.45l-.2-.5c1.9,1.1,7.72,2,13.31-1.59a23.1,23.1,0,0,0,8.87-9.61c5.32-11,4.61-27.62,4.58-29.12" transform="translate(-212.33 -241.6)"/><path class="cls-2" d="M567.27,286a49.13,49.13,0,0,1-7.91,5.34l-1.27.69v-.91c0-.11.35-12.47-5.65-23.12-.38.51-1.65,2.11-2.94,3.76a2.64,2.64,0,0,1,2.24.81,23,23,0,0,1,4.45,7.19,19.28,19.28,0,0,1,1,6.74h0s-.72,12.59-2.16,24.65c-1.31,10.95-2,12.39-2,12.39a7.84,7.84,0,0,1-1.38-3l-.13.11a9.61,9.61,0,0,1-1.21-3.25,47.49,47.49,0,0,1-.56-9h0a3.73,3.73,0,0,0-.48-1.68,7.9,7.9,0,0,1-.56-1.54v0c-.78-3.37-2.32-4.32-3.17-5.36a15.69,15.69,0,0,1-2.23-3.66.29.29,0,0,1-.08.07,3.12,3.12,0,0,0-1,1.39,13.42,13.42,0,0,1,.08,4.36,3.29,3.29,0,0,1-.41-.33c.13,1.3-.48,2.81-.09,4l-.77-.1a1,1,0,0,0,.08.19,1.16,1.16,0,0,0,.39.33l.25.12c.07,0,.26.11.79.28a2.32,2.32,0,0,0-.33-2.45c-.37-.45.07-1.1.83-.76a10.81,10.81,0,0,1,3.17,2.11c1.6,1.53,2.07,3,1.73,3.29s-.46.18-.78.07a1,1,0,0,1,0,.17.94.94,0,0,1-.7.6l0,.06c-.17.24-.45.32-.93.32a2.27,2.27,0,0,1-.94-.29,1,1,0,0,1-.32-.23l-.29.23a69.57,69.57,0,0,1,5.45,7.65,23.14,23.14,0,0,1,1.82,4.07,3.26,3.26,0,0,1-1.54,0,5.5,5.5,0,0,1,.42,2.27,4.62,4.62,0,0,1-2.47-.58c0,.14,0,.29.08.43l2,1.48c-3.82,1.79-9.34,1-9.45,1l-.71-.1-.14.34c.37.89,1.24,2.95,1.44,3.36a12.67,12.67,0,0,0,8.15,1.26,11.23,11.23,0,0,0,2.07-.56,21.48,21.48,0,0,0,6.56-4.23,25.65,25.65,0,0,0,4.92-6.3c4.22-8.25,4.92-20.49,4.92-25.44v-2.57c0-1.66-.12-4.38-.18-5.63" transform="translate(-212.33 -241.6)"/><path class="cls-2" d="M526.1,329.39c.17-.46.93-2.29,1.32-3.21q-.07-.26-.15-.48c-.52.08-1.06.16-1.59.21-.35,0-5.61.85-9.42-.94.46-.33,1.33-1,2.51-1.8a2,2,0,0,1,0-.24,4.62,4.62,0,0,1-2.47.58,5.67,5.67,0,0,1,.42-2.27,3.26,3.26,0,0,1-1.54,0,24.08,24.08,0,0,1,1.82-4.07,45.65,45.65,0,0,1,4.17-5.9,3.23,3.23,0,0,1,.74-1.33,2.73,2.73,0,0,0,.23-.25l-.45-.37a1,1,0,0,1-.37.29,2.65,2.65,0,0,1-1,.29c-.48,0-.76-.08-.93-.32l0-.06a.91.91,0,0,1-.69-.6.57.57,0,0,1,0-.18.62.62,0,0,1-.7-.09c-.34-.29.13-1.77,1.74-3.29a10.67,10.67,0,0,1,3.17-2.12c.75-.33,1.2.32.83.76a2.34,2.34,0,0,0-.33,2.46,7.45,7.45,0,0,0,.71-.26,1.2,1.2,0,0,0,.63-.44.93.93,0,0,0,.08-.17l-.67.08c.34-.84-.19-2.91.16-4.25a2.53,2.53,0,0,1-.46.27,16.32,16.32,0,0,1-.11-4.09,2.75,2.75,0,0,0-.84-1.15,13.44,13.44,0,0,1-2.13,3.49c-.85,1-2.39,2-3.18,5.36,0,0,0,0,0,0a7.5,7.5,0,0,1-.56,1.54,3.91,3.91,0,0,0-.48,1.68h0a48.34,48.34,0,0,1-.56,9,9.47,9.47,0,0,1-1.22,3.25l-.12-.11a7.84,7.84,0,0,1-1.38,3s-.72-1.44-2-12.39c-1.44-12.06-2.17-24.65-2.17-24.65h0a19.05,19.05,0,0,1,1-6.74,23.21,23.21,0,0,1,4.44-7.19,2.67,2.67,0,0,1,2.48-.77c-.23-.32-.49-.66-.49-.66-.83-1.1-1.79-2.31-2.6-3.39-5.89,10.37-5.75,22.75-5.75,22.85V292l-1-.55A49.1,49.1,0,0,1,499,286c-.07,1.26-.19,5.52-.19,5.52s0,1,0,2.6c0,4.94.88,17.09,4.92,25.43a24.75,24.75,0,0,0,4.79,6.39,18.58,18.58,0,0,0,7.16,4.18l.62.21a12.74,12.74,0,0,0,9.74-.88Z" transform="translate(-212.33 -241.6)"/><path class="cls-2" d="M528.6,332.52a52.57,52.57,0,0,1,.63-5.54,3.28,3.28,0,0,1-.92.68c-.07,0-.16-.08-.25-.2l-2.22,5.45a2.57,2.57,0,0,1,2.76-.39" transform="translate(-212.33 -241.6)"/><path class="cls-2" d="M537.56,334a59.56,59.56,0,0,0-.94-8l-.12-.19c-.08-.1-.15-.21-.23-.32a10.26,10.26,0,0,1-.52,1.46,3.76,3.76,0,0,1-.76,1.17,5.48,5.48,0,0,1-1.88-2.32,5.38,5.38,0,0,1-1.87,2.28,3.63,3.63,0,0,1-.76-1.17c-.11-.26-.21-.53-.31-.79a64.45,64.45,0,0,0-.83,7.88c-2.29-1.51-3.68,0-3.21,1a1.53,1.53,0,0,0,.16.25,1.46,1.46,0,0,0,1.13.6,7.41,7.41,0,0,1,2.82.65,8.9,8.9,0,0,1,3.21,2.64,8.88,8.88,0,0,1,3.2-2.64,7.41,7.41,0,0,1,2.82-.65,1.59,1.59,0,0,0,1.14-.6,1.5,1.5,0,0,0,.15-.25c.47-1-.92-2.56-3.2-1" transform="translate(-212.33 -241.6)"/><path class="cls-2" d="M538.37,327.66a3.06,3.06,0,0,1-.76-.54,45.8,45.8,0,0,1,.68,5.4,2.58,2.58,0,0,1,2.77.39l-2.24-5.74c-.21.28-.4.5-.45.49" transform="translate(-212.33 -241.6)"/><path class="cls-3" d="M567.45,291.65c0-1.66-.12-4.38-.18-5.63a49.13,49.13,0,0,1-7.91,5.34l-1.27.69v-.91c0-.11.35-12.47-5.65-23.12-.38.51-1.65,2.11-2.94,3.76a2.64,2.64,0,0,1,2.24.81,23,23,0,0,1,4.45,7.19,19.28,19.28,0,0,1,1,6.74h0s-.72,12.59-2.16,24.65c-1.31,10.95-2,12.39-2,12.39a7.84,7.84,0,0,1-1.38-3l-.13.11a9.61,9.61,0,0,1-1.21-3.25,47.49,47.49,0,0,1-.56-9h0a3.73,3.73,0,0,0-.48-1.68,7.9,7.9,0,0,1-.56-1.54v0c-.78-3.37-2.32-4.32-3.17-5.36a15.69,15.69,0,0,1-2.23-3.66.29.29,0,0,1-.08.07,3.12,3.12,0,0,0-1,1.39,13.42,13.42,0,0,1,.08,4.36,3.29,3.29,0,0,1-.41-.33c.13,1.3-.48,2.81-.09,4l-.77-.1a1,1,0,0,0,.08.19,1.16,1.16,0,0,0,.39.33l.25.12c.07,0,.26.11.79.28a2.32,2.32,0,0,0-.33-2.45c-.37-.45.07-1.1.83-.76a10.81,10.81,0,0,1,3.17,2.11c1.6,1.53,2.07,3,1.73,3.29s-.46.18-.78.07a1,1,0,0,1,0,.17.94.94,0,0,1-.7.6l0,.06c-.17.24-.45.33-.93.32a2.27,2.27,0,0,1-.94-.29,1,1,0,0,1-.32-.23l-.29.23a69.57,69.57,0,0,1,5.45,7.65,23.14,23.14,0,0,1,1.82,4.07,3.26,3.26,0,0,1-1.54,0,5.5,5.5,0,0,1,.42,2.27,4.62,4.62,0,0,1-2.47-.58c0,.14,0,.29.08.43l2,1.48c-3.82,1.79-9.34,1-9.45,1l-.71-.1-.14.34c.37.89,1.24,2.95,1.44,3.36a12.67,12.67,0,0,0,8.15,1.26,11.23,11.23,0,0,0,2.07-.56,21.48,21.48,0,0,0,6.56-4.23,25.65,25.65,0,0,0,4.92-6.3c4.22-8.25,4.92-20.49,4.92-25.44v-2.57m-26.39,41.26-2.24-5.74c-.21.28-.4.5-.45.49a3.06,3.06,0,0,1-.76-.54,45.8,45.8,0,0,1,.68,5.4,2.58,2.58,0,0,1,2.77.39m-3.5,1.07a59.56,59.56,0,0,0-.94-8l-.12-.19c-.08-.1-.15-.21-.23-.32a10.26,10.26,0,0,1-.52,1.46,3.76,3.76,0,0,1-.76,1.17,5.48,5.48,0,0,1-1.88-2.32,5.38,5.38,0,0,1-1.87,2.28,3.63,3.63,0,0,1-.76-1.17c-.11-.26-.21-.53-.31-.79a64.45,64.45,0,0,0-.83,7.88c-2.29-1.51-3.68,0-3.21,1a1.53,1.53,0,0,0,.16.25,1.46,1.46,0,0,0,1.13.6,7.41,7.41,0,0,1,2.82.65,8.9,8.9,0,0,1,3.21,2.64,8.88,8.88,0,0,1,3.2-2.64,7.41,7.41,0,0,1,2.82-.65,1.59,1.59,0,0,0,1.14-.6,1.5,1.5,0,0,0,.15-.25c.47-1-.92-2.56-3.2-1m-11.72-1.07a2.57,2.57,0,0,1,2.76-.39,52.57,52.57,0,0,1,.63-5.54,3.28,3.28,0,0,1-.92.68c-.07,0-.16-.08-.25-.2l-2.22,5.45m.23-3.44,0-.08c.17-.46.93-2.29,1.32-3.21q-.07-.26-.15-.48c-.53.08-1.06.16-1.59.21-.35,0-5.61.85-9.42-.94.46-.33,1.33-1,2.51-1.8a2,2,0,0,1,0-.24,4.62,4.62,0,0,1-2.47.58,5.81,5.81,0,0,1,.41-2.27,3.23,3.23,0,0,1-1.53,0,24.08,24.08,0,0,1,1.82-4.07,44.7,44.7,0,0,1,4.17-5.9,3.09,3.09,0,0,1,.74-1.32l.23-.26-.45-.37a1,1,0,0,1-.37.29,2.65,2.65,0,0,1-1,.29c-.48,0-.76-.08-.93-.32l0-.06a.91.91,0,0,1-.69-.6.57.57,0,0,1,0-.18.62.62,0,0,1-.7-.09c-.34-.29.13-1.77,1.74-3.29a10.67,10.67,0,0,1,3.17-2.12c.75-.33,1.2.32.83.76a2.34,2.34,0,0,0-.33,2.46,7.45,7.45,0,0,0,.71-.26,1.2,1.2,0,0,0,.63-.44.93.93,0,0,0,.08-.17l-.67.08c.34-.84-.19-2.91.16-4.24a3.28,3.28,0,0,1-.46.26,16.32,16.32,0,0,1-.11-4.09,2.75,2.75,0,0,0-.84-1.15,13.44,13.44,0,0,1-2.13,3.49c-.85,1-2.39,2-3.18,5.36,0,0,0,0,0,0a7.5,7.5,0,0,1-.56,1.54,3.91,3.91,0,0,0-.48,1.68h0a48.34,48.34,0,0,1-.56,9,9.73,9.73,0,0,1-1.22,3.25l-.12-.11a8,8,0,0,1-1.38,3s-.72-1.44-2-12.39c-1.44-12.06-2.17-24.65-2.17-24.65h0a19.28,19.28,0,0,1,1-6.74,23.39,23.39,0,0,1,4.45-7.19,2.67,2.67,0,0,1,2.48-.77c-.23-.32-.49-.66-.49-.66-.83-1.1-1.79-2.31-2.61-3.39-5.88,10.37-5.74,22.75-5.74,22.85V292l-1-.55A49.1,49.1,0,0,1,499,286c-.07,1.26-.19,5.52-.19,5.52s0,1,0,2.6c0,4.94.88,17.09,4.92,25.43a24.75,24.75,0,0,0,4.79,6.39,18.62,18.62,0,0,0,7.15,4.18l.63.21a12.74,12.74,0,0,0,9.74-.88m-27-44.83a54.89,54.89,0,0,0,8.09,5.57A49.33,49.33,0,0,1,513.3,267l-1.62-2.14a4.45,4.45,0,0,1-2,1.13,8.89,8.89,0,0,0-1-4.46,17.63,17.63,0,0,1-4.51-.42c-3,6.38-4.49,13.74-5,23.51m5.07-23.57a6.28,6.28,0,0,0,1.77-1.55,8.26,8.26,0,0,0,.69-1.17l-.61-.78c-.67,1.13-1.29,2.3-1.85,3.5m3-3.83a4.06,4.06,0,0,1,.28-.43c-1.46-1.92-2.45-3.21-2.55-3.32a3.91,3.91,0,0,1-.66-2.49,20.67,20.67,0,0,1-3.06-1.72l6,8m.2-1.54.48.64a21.17,21.17,0,0,1,9.52-6.75,1.87,1.87,0,0,1,.39-2.58h0a2.28,2.28,0,0,1,2.21,1.75,47.34,47.34,0,0,1,10.61-1.46,3.61,3.61,0,0,1,2.1-3.43.88.88,0,0,1,.46-.7h0a.86.86,0,0,1,.45.7,3.59,3.59,0,0,1,2.1,3.43,47.43,47.43,0,0,1,10.62,1.46,2.26,2.26,0,0,1,2.2-1.75h0a1.89,1.89,0,0,1,.39,2.58,21.68,21.68,0,0,1,9.62,6.84l.49-.66a22.42,22.42,0,0,0-8.78-6.44,2.5,2.5,0,0,0-.64-2.67,1.15,1.15,0,0,0-.53-1h0a1.45,1.45,0,0,0-1.13.45,3.14,3.14,0,0,0-2.46,1.68,48.78,48.78,0,0,0-8.93-1.19,3.74,3.74,0,0,0-2.23-3.27,1.75,1.75,0,0,0-1.18-1,1.71,1.71,0,0,0-1.17,1,3.72,3.72,0,0,0-2.23,3.27,48.65,48.65,0,0,0-8.93,1.19,3.17,3.17,0,0,0-2.46-1.68,1.47,1.47,0,0,0-1.14-.45,1.16,1.16,0,0,0-.54,1,2.51,2.51,0,0,0-.64,2.67,21.7,21.7,0,0,0-8.66,6.37m51.54,1.23.26.46,6.2-8.24a21.21,21.21,0,0,1-3.06,1.73,3.88,3.88,0,0,1-.66,2.48c-.1.12-1.17,1.51-2.74,3.57m1.3.77-.57.76a5.41,5.41,0,0,0,2.42,2.56,36,36,0,0,0-1.85-3.32m-9.18,10.52,3-4a3.85,3.85,0,0,1-.31-.43c-1.1,1.46-2.21,3-3.28,4.4a30.41,30.41,0,0,0-2.05,3c0,.32,2-2.14,2.62-2.95M530.8,324.73a11.15,11.15,0,0,0,.65,1.55,4.62,4.62,0,0,0,1.36-2.79,8.32,8.32,0,0,1-.8.6c-.47.27-.91.49-1.21.64m-13.24,0c1.64.63,6.16.69,8.28.43a13.94,13.94,0,0,0,6.52-2.38c-.45-.39-1-.9-1.58-1.45a11,11,0,0,1-2.24,1.53,30,30,0,0,1-7.49,1.63s5.55-1.26,7.49-2.31a14,14,0,0,0,1.73-1.33c-.71-.69-1.42-1.38-1.95-1.91a9.79,9.79,0,0,1-1,.81,13.93,13.93,0,0,1-2.58,1.24,33.74,33.74,0,0,0-7.16,3.74m6.38-32.64c.29-.92.63-6.78-1.69-9.3a45.25,45.25,0,0,1,1.69,9.3m-4.4-14.53a6.7,6.7,0,0,0,.09,2.45,8.79,8.79,0,0,0,.55,1.41,9.66,9.66,0,0,0-.64-3.86m1.19,1.88a16.71,16.71,0,0,0,.9,4.9c.06-2.14-.38-4.32-.9-4.9M512.29,264l3.25,4.34c.59.81,2.64,3.26,2.62,2.95a28.13,28.13,0,0,0-2-3c-1.15-1.55-2.35-3.17-3.53-4.73l-.29.44m-1.51-8h0c-.17-.19-.61-.57-1.7.2-1.94,1.67-1.31,3.19-3.3,4.54a10.61,10.61,0,0,0,1.76.17,6.78,6.78,0,0,0,.84-.05c.37,0,.67-.1.93-.14h0a8.3,8.3,0,0,1,1.11,4c2.33-1.23,1.38-5.21,3.55-5.17L510.78,256m44.45-.92a19.43,19.43,0,0,0-5.64-3.66c-6.24-2.73-14.16-2.75-16.42-2.75h0c-2.27,0-10.19,0-16.42,2.75a19.16,19.16,0,0,0-5.64,3.66s2.82,3.17,3.55,4a1.35,1.35,0,0,1,.29,1.51c4.33-2.91,9.26-4.36,18-4.42h.39c8.64.08,13.71,1.54,18,4.42a1.37,1.37,0,0,1,.29-1.51c.73-.85,3.56-4,3.56-4M554,261.72a5.15,5.15,0,0,0,1.43,2.77,2.08,2.08,0,0,0,.38.25h0A8.34,8.34,0,0,1,557,260.7h0a8.74,8.74,0,0,0,3.53,0c-1.8-1.22-1.41-2.57-2.74-4.06a4.62,4.62,0,0,0-.5-.48,2,2,0,0,0-1.08-.46.78.78,0,0,0-.62.26c-.18.2-2,2.21-3.28,3.59,1.11,0,1.4,1,1.73,2.15m-1.53,2.76.57-.75a24.33,24.33,0,0,0-10.51-5.44,28.74,28.74,0,0,0-6.46-.65c-1.16,0-1.9.47-1.9,1.19-.72-.13-.92-1-1-1.21-.07.38-.42,1.12-1,1.21,0-.72-.75-1.17-1.91-1.19a28.74,28.74,0,0,0-6.46.65,23.19,23.19,0,0,0-10.44,5.29l.56.75a21.52,21.52,0,0,1,8.6-4.82,27.36,27.36,0,0,1,7.55-1c1.36.06,1.55.83,1.39,1.25a2.19,2.19,0,0,1,3.42,0c-.16-.42,0-1.19,1.4-1.25a27.34,27.34,0,0,1,7.54,1,22.93,22.93,0,0,1,8.66,5m-10.06,12.15a1.53,1.53,0,0,0,.91-.21,1.06,1.06,0,0,0,.39-.37c2-2.84,5.61-7.41,8.34-11-5.58-5.52-13.58-5.89-15.66-5.74-.49,0-1,.43-.43,1.23a7.53,7.53,0,0,0-5.6,0c.62-.8.07-1.2-.43-1.23-2.1-.15-10.51.66-15.58,5.62l8.76,11.58a1.08,1.08,0,0,0,.76.34H524a1.46,1.46,0,0,0,.9-.57c.6-.65.9-1,1.5-1.63,1.15-1.18,2.23-2.07,2.42-2.24a1.63,1.63,0,0,0,.65-1.18c0-.42-.36-.59-.57-.85a1,1,0,0,1-.1.16,2.53,2.53,0,0,1-.4-.8l-.11.3s-.44-1-1.12-.94a2.65,2.65,0,0,1-1.61-.3c-.06,0-.09.3-.08.66l0,0a1.85,1.85,0,0,1,.4-2.85,5.58,5.58,0,0,1,1.48-.81,1.64,1.64,0,0,0,.5-.43,3.42,3.42,0,0,1,1.64-.87,12.38,12.38,0,0,1,3.28-.27,6.53,6.53,0,0,1,2,.43,7.47,7.47,0,0,1,2.2,1.86,18.81,18.81,0,0,1,1.56,3.12c.85,2.08.75,1.86,1.33,3.24a15.43,15.43,0,0,0,1.7,3.34,1,1,0,0,0,.88.45m-17.12,15.15a3.14,3.14,0,0,0,1.37,2.42,8,8,0,0,0-1.37-2.42M535.92,301a4.59,4.59,0,0,1-.91,1.07,3.33,3.33,0,0,0,.15-.74,5.54,5.54,0,0,1-.88,1.16,2.77,2.77,0,0,0-.8,1.33,3.94,3.94,0,0,1,1-.73,3.41,3.41,0,0,0,1.45-2.09m.55,8.57a12.41,12.41,0,0,0-1.41-1.64,12.71,12.71,0,0,1,.59,1.65h0l.09-.06a.72.72,0,0,1,.29-.06.92.92,0,0,1,.31.07l.13,0m-.44,7,1.48,1.47c.25-.28.47-.51.63-.7L536.65,316l-.62.61m-2.69-2.72c.66.69,1.55,1.62,2.13,2.18l.61-.59-2.27-2.09-.47.5m-.25-1.26c0,.35,0,.63,0,.76l.37-.4s-.29-.25-.39-.36m0-.44s.38-.46.56-.65l0,0a6.84,6.84,0,0,0-.56-2.21c-.06.38,0,1.81,0,2.89m.94-3.84c.11.63.19,2.1.22,2.58h0l.53-.53a5.23,5.23,0,0,0-.75-2m-1-.63a3.83,3.83,0,0,0,.48-.26,1.79,1.79,0,0,0,.7-.66,1.22,1.22,0,0,0,.11-.73,1.51,1.51,0,0,1-.46.63,4.37,4.37,0,0,0-.52.54,2.2,2.2,0,0,0-.31.48m-.54-4.2c0-1.06-1.15-1.18-1.42-2.23-.13,1.47.89,1.5,1.42,2.23m.63,2.4v0a1.39,1.39,0,0,1,.44-.47,11.57,11.57,0,0,0,1.8-1.32,2.43,2.43,0,0,0,.36-.83,2.27,2.27,0,0,1-.76.69,7,7,0,0,0-1.68,1.23,1.26,1.26,0,0,0-.15.4.75.75,0,0,0-.08-.3c-.33-.68-1.29-.95-1.87-1.62-.37-.43-.39-.61-.39-.61a1.67,1.67,0,0,0,.26,1,6.08,6.08,0,0,0,1.28,1.05,2.19,2.19,0,0,1,.79.74m-.49,1.35a1.49,1.49,0,0,0-.72-1.08,1.76,1.76,0,0,0,.72,1.08m-.31,4.25c0-.64,0-1.33-.09-1.64a3.13,3.13,0,0,0-.42,1.11l.51.53m-3.49-1.73c.18-.07.63-.27.87-.33l.18,0h0a14.66,14.66,0,0,1,.52-1.58,13.27,13.27,0,0,0-1.57,1.94m1.89.11.41.41a12.39,12.39,0,0,0,.22-2.26,5.47,5.47,0,0,0-.63,1.85m0-9a1.62,1.62,0,0,0-.17-.64,5.25,5.25,0,0,0-.56-.61.58.58,0,0,1-.14-.24,2.26,2.26,0,0,0,.09.77.94.94,0,0,0,.41.53,1.3,1.3,0,0,0,.37.19M530.3,312l-4.77,4.49.83.86c.09.09.15.09.22,0l5.44-5s.05-.08,0-.12c-.22-.23-.7-.78-1.07-1.17s-1-1-1.33-.93a7.93,7.93,0,0,1-.9.22,5,5,0,0,1-2.18-.14l-.1,0c0,.11,0,.23,0,.33s0,.2-.07.32a10.8,10.8,0,0,0,2,.09c.37,0,.61.12.28.49,0,0-3.11,3.1-3.28,3.28-.66.61-.7.76-.51,1,.05.06,0,0,.21.21l1.27-1.13,2-1.8s1.47-1.37,1.53-1.45a.16.16,0,0,1,.22,0l.28.29a.17.17,0,0,1-.05.2m7.33-1a11.66,11.66,0,0,0,1.9-.07,3,3,0,0,1-.07-.37,2.19,2.19,0,0,1,0-.27h0a5,5,0,0,1-2.18.14,7.52,7.52,0,0,1-.89-.23c-.35-.1-.9.48-1.33.93s-.86.95-1.07,1.18a.07.07,0,0,0,0,.12c.4.35,5.15,4.7,5.45,5,.07.07.12.07.22,0l.83-.86L535.65,312c-.07-.07-.08-.17,0-.2a3.83,3.83,0,0,1,.28-.29.14.14,0,0,1,.21,0c.07.08,1.54,1.45,1.54,1.45l2,1.8,1.28,1.13.2-.2c.19-.21.15-.35-.5-1l-3.29-3.29c-.32-.36-.09-.48.29-.49m-1-12.77s.74-.71,1-3a1.64,1.64,0,0,1,.49.68,17,17,0,0,0,1.51-4.76c.31.14,0,.07.39.24a15.68,15.68,0,0,0,1-4.69c.11,0,.32,0,.4.14.16-1.13.33-2.94.38-4.2a14.71,14.71,0,0,0-.46-4.61A12.91,12.91,0,0,0,540,274.8a1.24,1.24,0,0,0-.4.31,27.44,27.44,0,0,0-1.05-2.67c-.7-1.37-1-2.26-1.78-2.73a5.65,5.65,0,0,0,.89.08,14.89,14.89,0,0,0-1.2-1.18c.18-.12.48-.11,1,0-.73-.66-1-1.67-2.84-2.38a9.86,9.86,0,0,1,1,0A3.13,3.13,0,0,0,533.9,265c-1.91-.38-4.56-.44-5.79,1a2.72,2.72,0,0,1-.72.28,1.29,1.29,0,0,0-.35.18c-.21.16-.25.37.15,1-.53-.08-.67-.6-.76-.54a1.66,1.66,0,0,0-.57.58,2,2,0,0,0-.3,1.07.37.37,0,0,0,.6-.27c0-.19.87-.26,1.16-.26s.81.1,1.33.07c-.18.07-.77.24-1,.3s-.26.32,0,.34.35-.08.58-.14,0,.33.09.48c1.54-.35,1.66,1.31,3.3,1-.78-.6-1.43-1.61-2-1.92,1.62.26,2.5,1.71,4.25,1.79-.07-.17-.07-.17-.21-.47.59,0,1,.46,1.2.44a2.5,2.5,0,0,1-1.4.53c.12.22.77.27,1,.31a1.59,1.59,0,0,1-1.55.31,7.07,7.07,0,0,1-1.75,1.48,4.46,4.46,0,0,1,.06-.54c-.75.44-1.25,1.23-1.81,1.45.17-.28.31-.77.43-1-2,1.78-3.86,3.5-4.57,4.79a9.49,9.49,0,0,0-.94,5.39c.07,1.31.63,5,.73,5.78.16-.07.27-.13.41-.18A30.87,30.87,0,0,0,528,296a1.15,1.15,0,0,1,.43-.58,3.64,3.64,0,0,0,1.11,2.09,2,2,0,0,1,.25-1c.16.53.06,2.17,1,3.08a4.68,4.68,0,0,1,.24-1.44,12.48,12.48,0,0,0,.45,1.72,3.32,3.32,0,0,0,1,1.41,5.36,5.36,0,0,1,.2-1.76,5,5,0,0,1,.75,2.21c1-.74,1.33-3.15,1.33-3.15a2.12,2.12,0,0,1,.48.91,6.51,6.51,0,0,0,1.34-2.89,5.19,5.19,0,0,1,0,1.51m-15.53-10.46a14.27,14.27,0,0,1,2.06,6.48c.85-2.21-.53-6.6-1.85-9a1.89,1.89,0,0,1-.36,1.22c-.25-2.8-2-4.84-2.31-6.8a6.07,6.07,0,0,1-.2.86,15.36,15.36,0,0,1-1.59-4,2.08,2.08,0,0,0-.32,1.16c-.87-2.43,0-3.41.22-3.56.66-.38,1.46.23,2.07.92.93,1,1.9,3.08,5,3.13.51,0,.7-.11.44-.16h0c-2.57-.48-3-1.51-5.18-3.85-1.33-1.45-2.67-2.29-4.25-.43a19.73,19.73,0,0,0-4.59,9.17,16.81,16.81,0,0,0-.15,5.92c.36-.13.39-.22.39-.22s.4,4.12,1.11,5.15a6.87,6.87,0,0,0,.5-2.5,7.49,7.49,0,0,0,1.28,2.57,7.88,7.88,0,0,0,.15-3.11A5.66,5.66,0,0,0,515,293c.26-.66.52-1.72.31-5.12a26.72,26.72,0,0,1,.44,3.05,2.87,2.87,0,0,0,.66.42c.11-.34.44-.84-.12-5.1,1.42,4.62.63,5.87.49,6.2a3.6,3.6,0,0,1-1-.86,4.81,4.81,0,0,1-.46,2.44,3.42,3.42,0,0,1-1.21-1.21,6.14,6.14,0,0,1-.32,2.32,7.19,7.19,0,0,1-1.34-2.06,5.8,5.8,0,0,1-.67,2.5c-1.19-1.55-1.59-6-1.59-6l-.18.13c.07,1.08.2,2.75.36,4.64v0c.18,2.2.41,4.69.6,6.9q.69,8,1.76,15.85a8.86,8.86,0,0,0,.24,1.34,16.06,16.06,0,0,0,.1-3.8,7.43,7.43,0,0,0,.38-2.36c0-.64-.74-8.77-1-12,0-.39-.08-1.26-.08-1.26a2.72,2.72,0,0,1,.07.33c.25,1.21.44,2.42.62,3.64.11.72.22,1.49.32,2.28a62.46,62.46,0,0,1,.67,7.1,7.68,7.68,0,0,1-.41,2.28,10.48,10.48,0,0,1-.35,4.78.66.66,0,0,1-.32-.29,25.69,25.69,0,0,0,.59,2.59c.56-1.21.88-2.51.78-5.74a10.13,10.13,0,0,0,.56-2.64c0-.49-.07-2.05-.21-4-.24-3.46-.54-6.91-.81-10.36,0-.17,0-.58,0-.61,0,.15.07.31.11.48a82.78,82.78,0,0,1,1.59,13.56,12.75,12.75,0,0,1-.62,3.86,9.08,9.08,0,0,1,.06,1.85,5.13,5.13,0,0,1-.1,1.22c.35-.79,1.46-3.44,1.08-11.72,0-.2,0-.4,0-.61-.31-5.75-.77-9.52-.77-9.52a48.41,48.41,0,0,1,1.32,9.1,1.8,1.8,0,0,0,.11-.2,11,11,0,0,0,.58-4.7c-.2-3-.56-5.51-.55-5.5a1.68,1.68,0,0,0,.08.24,28,28,0,0,1,.67,2.79,25.65,25.65,0,0,1,.45,3.25c0,.16,0,.31,0,.46,1.15-1.72.66-5.15.09-8.71a16.11,16.11,0,0,1,1.18,6.76c1.72-1.62.78-4.84.13-8.53,1,2.2,1.71,4.88,1.46,6.65,1.4-1.82.88-4.23-.37-8.95a16.22,16.22,0,0,1,1.87,6.06c.91-2.14-.15-5.7-1.06-8.57M523,304.38c.28-.45-.12-.57-.93-.07a11.86,11.86,0,0,0-3,2.54c-.2.27-.14.43.22.07.84-.84,2.1-2,2.08-1.45a3.7,3.7,0,0,0,.24,1.46l.38-.09,1.09-.29a2.53,2.53,0,0,1-.11-2.17m-.52,5.72a2.54,2.54,0,0,0-.81,1.72c0,.5.31.78.72.75.64-.06.31-.74.67-.32.15.17.63-.39.76-.52-.28,0-.67.09-.61-.31a1.78,1.78,0,0,1,.46-.78c.17-.21.68-1.2,1-1.07.17.11.07,1-.2,1.61-.57,1.22-.67,2-.27,2.25l0,0v0a1,1,0,0,0,.46,1.2l.05-.05a1.63,1.63,0,0,1,0-.88s0-.18-.31-.28h0a3.64,3.64,0,0,0,.57,0,.54.54,0,0,0,.56-.54c0-.15,0-.3,0-.46.08-.69.2-1.32.3-1.8s.26-1.89.26-1.89a.89.89,0,0,1,.27,0,.57.57,0,0,1,.51.41.79.79,0,0,1,0,.45.59.59,0,0,0,.36-.48v0h0a.69.69,0,0,0,.33-.47c.07-.48-.49-1-.54-1-.33-.26-.22-.76-.07-1.18l.19-.51a2.56,2.56,0,0,0,.65.56,2.27,2.27,0,0,0,1.55.41,3.92,3.92,0,0,1-.24-1,9.89,9.89,0,0,1,0-1.31l.58.63a9.4,9.4,0,0,0,.12-3.36,12.46,12.46,0,0,0-.91-3.9,7,7,0,0,0-.5-1.14,1.24,1.24,0,0,1-.47.66,9.1,9.1,0,0,1-1.57-2.64,2.79,2.79,0,0,1-.49.61l-.1.08,0-.12a3.26,3.26,0,0,0-.78-1.51,3.63,3.63,0,0,1-.58-.94,9,9,0,0,0-.28,2.05,4.89,4.89,0,0,1-.25,1.61l.31-.18a.57.57,0,0,1,.28-.14h0l0,0a.11.11,0,0,1,0,.11,19.71,19.71,0,0,0-.41,2.47,8,8,0,0,0,.06,2,6.25,6.25,0,0,1,.66-.38,9.55,9.55,0,0,0-.19,3.39,5.27,5.27,0,0,1,0,1.16,2.67,2.67,0,0,0,.93-.37,5.41,5.41,0,0,1-.43,1.28,4.3,4.3,0,0,1-2.45,1.11,14.6,14.6,0,0,0-3,.95c-.31.15-.61.47-.53.7s.43.3.56.3l.07.16c.23.34,1,.13,1.14.05a1,1,0,0,0,.4-.29c0,.06-.28,0-.43-.09a.18.18,0,0,1-.11-.12c-.05-.43,1.76-.49,2-.48s.38.06.49.24.15.38-.92,1.55m.87,6.24a16.77,16.77,0,0,1-2.15,4.31,14.25,14.25,0,0,1-1.35,1.58s0,.14-.09.37l-.17.09.9-.5.45-.22c.59-.32,1.25-.62,1.9-.9.65-1.16,1.41-2.54,1.66-2.9a13.85,13.85,0,0,1-.92,2.59l.49-.19c1-.41,1.91-.73,2.34-.93a5.8,5.8,0,0,0,1.31-.8,2.38,2.38,0,0,0,.29-.26s-.73-.73-.73-.73l-.25.21a.62.62,0,0,1-.82.05c-.33-.31-1.83-2-2-2.13s-.32-.46,0-1v0a1.77,1.77,0,0,1-.53-1.29,1.27,1.27,0,0,1-.24-1,.7.7,0,0,1-.45.12.93.93,0,0,1-.63.29h-.09a1,1,0,0,1-.67-.22.87.87,0,0,1-.37-.47l0-.06a24.9,24.9,0,0,0-2.83,3.92,17.84,17.84,0,0,0-2.09,4c1-.06,1.48-.21,2.72-1.5.57-.6,2.07-2.82,3-4a21.2,21.2,0,0,1-2.39,4.44A11.45,11.45,0,0,1,518,321s-.36.22-.59,1.39c.64,0,2.31-.93,3.87-3,.49-.66.81-1.18,2-3.05m10.28,7.43a4.17,4.17,0,0,0,1.18,2.52,3.54,3.54,0,0,0,.52-1.57,9.78,9.78,0,0,1-1.7-1m6.53,1.35c2.11.27,6.64.21,8.27-.43a33.72,33.72,0,0,0-7.15-3.73,14.6,14.6,0,0,1-2.58-1.24,11.16,11.16,0,0,1-1.18-1c-1.3-1.2-4.73-4.77-5.33-5.43l-2.28,2.09s6,5.88,7.55,6.71c1.93,1.05,7.49,2.31,7.49,2.31a29.43,29.43,0,0,1-7.49-1.63c-1.95-.79-8.12-6.86-8.12-6.86l-1.49,1.37a44.18,44.18,0,0,0,5.1,4.89,13.6,13.6,0,0,0,7.21,2.9m4.27-10.3c1,1.19,2.45,3.41,3,4,1.24,1.3,1.77,1.44,2.71,1.5a17,17,0,0,0-2.07-4,36.8,36.8,0,0,0-3.34-4.62,1.87,1.87,0,0,1-.08.66c0,.05,0,.1-.07.14a1.14,1.14,0,0,1-.34.38,1.12,1.12,0,0,1-.73.19.89.89,0,0,1-.63-.29.71.71,0,0,1-.46-.12,1.27,1.27,0,0,1-.24,1,1.77,1.77,0,0,1-.5,1.26.59.59,0,0,1,.07.1c.31.55.17.82,0,1s-1.63,1.82-2,2.12a.61.61,0,0,1-.82-.05l-.24-.2-.7.69a.6.6,0,0,1,.08.08h0a5.85,5.85,0,0,0,1.69,1c.54.24,2.14.83,3.21,1.27-.26-.79-.56-1.7-.87-2.58.28.37,1,1.74,1.71,2.95h0a26.94,26.94,0,0,1,2.86,1.49l-.12-.5a15.35,15.35,0,0,1-1.34-1.59,16.37,16.37,0,0,1-2.14-4.31c1.23,1.87,1.55,2.39,2,3.05,1.56,2.1,3.23,3,3.87,3-.22-1.17-.64-1.43-.64-1.43a11,11,0,0,1-1.6-1.76c.2.27.38.52,0-.06s-.19-.26,0,0a21.55,21.55,0,0,1-2.36-4.41m-1.49-8.25,1,.26a3.06,3.06,0,0,0,.48.12,4,4,0,0,0,.23-1.45c0-.55,1.24.61,2.08,1.46.35.35.42.2.21-.08a11.82,11.82,0,0,0-3-2.53c-.8-.5-1.2-.38-.93.06a2.47,2.47,0,0,1-.1,2.16m-1.53-10.09a.14.14,0,0,1,0-.11l0,0h0a.63.63,0,0,1,.28.13l.31.19a5.19,5.19,0,0,1-.26-1.61,7.63,7.63,0,0,0-.26-2,.26.26,0,0,1,0-.09,3.38,3.38,0,0,1-.58.94,3.26,3.26,0,0,0-.78,1.51l0,.12-.1-.08c.18.16-.48-.6-.48-.61a14.29,14.29,0,0,1-2.3,3.48h0a7.24,7.24,0,0,0-.93,3.34,13.89,13.89,0,0,0,0,3.56l.58-.63a9,9,0,0,1,0,1.31,3.68,3.68,0,0,1-.23,1,2.32,2.32,0,0,0,2.06-.89l.15.43c.15.42.26.92-.07,1.18,0,0-.61.53-.54,1a.69.69,0,0,0,.33.47h0v0a.59.59,0,0,0,.36.48.79.79,0,0,1,0-.45.56.56,0,0,1,.51-.41.89.89,0,0,1,.27,0s.14,1.34.26,1.89.22,1.11.3,1.8c0,.16,0,.31.05.46a.52.52,0,0,0,.55.54,3.64,3.64,0,0,0,.57,0h0c-.35.1-.32.24-.31.28a1.53,1.53,0,0,1,0,.88l0,.05a1,1,0,0,0,.47-1.2v0l0,0c.4-.24.3-1-.27-2.25-.27-.57-.38-1.53-.2-1.61l0,0c.09,0,.2,0,.47.4s.37.5.61.8a1.35,1.35,0,0,1,.38.77.21.21,0,0,1-.08.18.3.3,0,0,1-.17.06,1.54,1.54,0,0,1-.37,0c.13.13.61.69.76.52.36-.42,0,.26.67.32.41,0,.71-.25.73-.75a2.75,2.75,0,0,0-.06-.44,2.5,2.5,0,0,0-.62-1.13l-.14-.15c-1.07-1.17-1-1.43-.91-1.55s.2-.24.48-.24a7.43,7.43,0,0,1,.89.05c.43.09,1.15.2,1.12.43a.16.16,0,0,1-.11.12c-.15.06-.39.15-.43.09a1,1,0,0,0,.4.29c.18.08.91.29,1.14-.05l.08-.16c.12,0,.48-.06.56-.3s-.23-.55-.54-.7a12.26,12.26,0,0,0-1.59-.6c-.24-.07-.54-.12-.76-.19l-1.29-.34s-.7-.22-1-.33l-.28-.13a1.51,1.51,0,0,1-.54-.47,5.94,5.94,0,0,1-.44-1.29,2.92,2.92,0,0,0,1,.41,6.77,6.77,0,0,1,0-1.15c.2-2.12.25-3.34.25-3.34l.42.44a13.76,13.76,0,0,0-.13-2.14v0a21.39,21.39,0,0,0-.42-2.45m5.32-16.57a6.7,6.7,0,0,0,.08-2.45,9.86,9.86,0,0,0-.63,3.86,8.79,8.79,0,0,0,.55-1.41m-2,4.33a16.71,16.71,0,0,0,.9-4.9c-.52.58-1,2.76-.9,4.9m-1.88-1.82c.74-2.21.12-3.32-.31-3.55,0,1,.26,1.49.31,3.55m-.44,9.57a46.67,46.67,0,0,1,1.69-9.3c-2.31,2.52-2,8.38-1.69,9.3m10.41-1.45a7.53,7.53,0,0,0,.15,3.11,7.68,7.68,0,0,0,1.28-2.57,6.87,6.87,0,0,0,.5,2.5c.71-1,1.11-5.15,1.11-5.15s0,.09.38.22a16.87,16.87,0,0,0-.14-5.93,19.79,19.79,0,0,0-4.6-9.16c-1.58-1.86-2.91-1-4.24.43-2.15,2.34-2.61,3.37-5.18,3.85h0c-.26.05-.07.17.44.16,3.1-.05,4.07-2.1,5-3.13.62-.69,1.41-1.3,2.08-.92.24.15,1.09,1.13.21,3.56a2.08,2.08,0,0,0-.32-1.16,14.49,14.49,0,0,1-1.59,4,5.4,5.4,0,0,1-.19-.85c-.31,2-2.07,4-2.32,6.8a1.89,1.89,0,0,1-.35-1.22c-1.33,2.44-2.7,6.83-1.85,9a14.39,14.39,0,0,1,2-6.48c-.91,2.87-2,6.43-1,8.57a16.14,16.14,0,0,1,1.87-6.07c-1.25,4.73-1.78,7.14-.38,9-.24-1.77.48-4.46,1.46-6.65-.65,3.69-1.58,6.91.14,8.53a16.29,16.29,0,0,1,1.17-6.76c-.56,3.56-1.06,7,.09,8.71a18.57,18.57,0,0,1,.48-3.71,30.32,30.32,0,0,1,.76-3s-.37,2.49-.56,5.52c0,.5,0,1,0,1.52a11.61,11.61,0,0,0,.19,1.86,4.61,4.61,0,0,0,.54,1.52,48.61,48.61,0,0,1,1.31-9.1s-.46,3.77-.76,9.52l0,.61c-.38,8.28.74,10.93,1.09,11.72a4.47,4.47,0,0,1-.11-1.22,9.14,9.14,0,0,1,.07-1.85,13,13,0,0,1-.63-3.86c.07-1.23.15-2.45.25-3.65s.2-2.15.31-3.16.21-1.82.35-2.76c.18-1.33.44-2.66.68-4,.19-1,.09-.13.07.13-.1,1.19-.31,3.79-.52,6.48-.15,2-.59,6-.5,7.87A10.36,10.36,0,0,0,552,316c-.09,3.23.23,4.53.79,5.74,0,0,.33-1.15.59-2.59a.69.69,0,0,1-.33.29,10.33,10.33,0,0,1-.34-4.77,7.87,7.87,0,0,1-.41-2.29,70.42,70.42,0,0,1,.66-7.1c.11-.79.22-1.56.33-2.28l.21-1.4c.11-.75.24-1.5.4-2.24,0-.12,0-.23.07-.33s0,.54-.08,1.26c-.25,3.18-1,11.32-1,12a8,8,0,0,0,.37,2.36,16.52,16.52,0,0,0,.11,3.8,8.86,8.86,0,0,0,.24-1.34s.45-3.3,1-8l.24-2.17c.07-.68.14-1.38.21-2.09s.17-1.68.24-2.51c0-.37.07-.73.1-1.09.19-2.21.41-4.7.6-6.9,0,0,.3-3.58.36-4.66l-.17-.13s-.41,4.42-1.59,6a5.54,5.54,0,0,1-.67-2.5,7.19,7.19,0,0,1-1.34,2.06,5.91,5.91,0,0,1-.32-2.32,3.37,3.37,0,0,1-1.22,1.21,4.92,4.92,0,0,1-.45-2.44,3.6,3.6,0,0,1-1,.86c-.15-.33-.94-1.58.49-6.2-.57,4.26-.23,4.76-.12,5.1a3.1,3.1,0,0,0,.66-.42,26.32,26.32,0,0,1,.43-3.05c-.21,3.4.06,4.46.32,5.12a5.66,5.66,0,0,0,1.43-2.34m9.38-29.41a17.7,17.7,0,0,1-4.52.42,8.9,8.9,0,0,0-1,4.46,3.75,3.75,0,0,1-1.88-1.06l-1.68,2.23a48.39,48.39,0,0,1,6,23,55.52,55.52,0,0,0,8.09-5.57c-.55-9.77-2.06-17.13-5-23.51m1.67,59.13a23.1,23.1,0,0,1-8.87,9.61c-5.59,3.54-11.41,2.69-13.31,1.59l.2.5c0,.13.14.34.18.45.75,2,.25,4.11-2.49,4.43a7.08,7.08,0,0,0-2.47.55,7.53,7.53,0,0,0-2.21,1.65,9.66,9.66,0,0,0-1.4,2h0a10.5,10.5,0,0,0-1.4-2,7.43,7.43,0,0,0-2.22-1.65,7,7,0,0,0-2.47-.55c-2.73-.32-3.23-2.41-2.49-4.44,0-.11.13-.31.18-.44l.2-.5c-1.38.81-4.82,1.43-8.82.34l-.39-.1a19.42,19.42,0,0,1-8.47-4.72,26.14,26.14,0,0,1-5.1-6.8c-5.32-11-4.57-27.31-4.59-29.05-.18-18.83,4-29.39,7.57-34.5-1.08-1.42-1.73-2.28-1.78-2.33a3.61,3.61,0,0,0-2.25-1.1,39.81,39.81,0,0,0-1.28-5.4,31,31,0,0,0,4.77,2.77,3.34,3.34,0,0,0,.46,2.45l1.42,1.89a19.72,19.72,0,0,1,5.93-4.95c.64-.36,1.32-.71,2.06-1a3.46,3.46,0,0,1,1-2.63,1.88,1.88,0,0,1,1.1-1.53h0a2.41,2.41,0,0,1,2,.55,4.44,4.44,0,0,1,2.66,1.45,49.65,49.65,0,0,1,7.51-1,4.36,4.36,0,0,1,2.34-2.94,2.43,2.43,0,0,1,1.83-1.24h0a2.46,2.46,0,0,1,1.83,1.24,4.42,4.42,0,0,1,2.34,2.94,49.68,49.68,0,0,1,7.5,1,4.47,4.47,0,0,1,2.67-1.45,2.4,2.4,0,0,1,2-.55h0a1.92,1.92,0,0,1,1.11,1.53,3.49,3.49,0,0,1,1,2.63c.74.33,1.42.68,2.06,1a22.31,22.31,0,0,1,6,5c1-1.25,1.52-2,1.56-2.08a3.27,3.27,0,0,0,.46-2.46,29.6,29.6,0,0,0,4.77-2.77,40.54,40.54,0,0,0-1.27,5.4,3.66,3.66,0,0,0-2.25,1.1c0,.05-.8,1-2,2.64,3.57,5.15,7.68,15.62,7.5,34.33,0,1.5.74,18.13-4.58,29.12m-42-64.13,1,.42c.25-.31.37-.46.66-.79-.36-.16-.61-.27-1-.42a9.43,9.43,0,0,0-.63.79m18.33-3.48a1,1,0,0,0-.43.46,1,1,0,0,0,.78.34l.22,0c.18-.42-.21-.95-.57-.82m8.12,2.18a3.59,3.59,0,0,1-.83,1.23,31.09,31.09,0,0,0-6.15-1.49,4.25,4.25,0,0,1-1.86,1.34,8.06,8.06,0,0,1-2.46-.71,6,6,0,0,0,.82,0,5.41,5.41,0,0,0,2.63-.77c-1.47-.22-1.82-.63-1.11-1.56.33-.43.86-1.2,1.64-1,.62.16.77,1,.7,1.68a29.74,29.74,0,0,1,5.58,1.38c.11-.48-.2-.72-.39-1.07a5.61,5.61,0,0,1,.92-.77,1.8,1.8,0,0,1,.51,1.72m-6.75.79.71.7c.37-.2.54-.3,1-.51-.28-.27-.45-.46-.74-.72-.31.15-.68.38-.93.53m7.56-.36c-.33.76-.62,1.52-1,2.21.22.09.53-.1.74-.23,1-.61,1.72-2.29,2.11-3.3a3.51,3.51,0,0,0-.9.26c-.59.27-.69.42-1,1.06m.46-1.5c.81-.07,1.55.13,1.89-.24a2.54,2.54,0,0,1-1.19-.53c.22-.18.53.06.69.2l.3-.28a1,1,0,0,0-1.52.27,1.54,1.54,0,0,1,.46.26,2.67,2.67,0,0,0-.63.32m-30.07,3c-.24-.08-.45-.15-.73-.22-.19.27-.38.62-.51.85l1,.32.37-.59.71.23c.22-.34.31-.5.55-.86-.38-.12-.64-.21-1-.32a5.8,5.8,0,0,0-.36.59m17-4.41c-.51-.83-2.39-.08-3.59.42.69,0,1.28,0,2,0,.29,0,1.08,0,1.6,0a.45.45,0,0,0,0-.43m.84,1.53c-4.07-.22-12,.21-15.94,1.28a6.13,6.13,0,0,0-.76-1.38c-1-1.12-1.47.09-1.47.24,1.31.07,1.54.74,1.54.74a3.12,3.12,0,0,1-1.27,1.26,4.81,4.81,0,0,1-2.23.78c-2.46.12-1.79-2.44-.3-3.49-.19.23-1.07,1.57-.53,2.26s2.89.14,3.44-.55a2.16,2.16,0,0,0-1.66-.3,3.6,3.6,0,0,1,1.4-2.45,3.47,3.47,0,0,1,2,1.78,63.83,63.83,0,0,1,10.51-1.26c-.08-.62-.3-3-.31-3.12,0-.38.22-.56.48-.72a1.79,1.79,0,0,0,1.13.93,4.15,4.15,0,0,1-.73.61c0,.47.08,1.34.09,1.68a14.22,14.22,0,0,1,2.4-.83,3.52,3.52,0,0,1,1.09-.1,1.92,1.92,0,0,1,.95.4,1.1,1.1,0,0,1,.4.75,4.26,4.26,0,0,1-.27,1.49m-6.89,12.14c-.06,0-.53,0-.58.06s.28.25.39.28a.19.19,0,0,0,.22-.1c.05-.1,0-.2,0-.24m.27,0a.87.87,0,0,1,.07.54.84.84,0,0,1-.71.78.87.87,0,0,1-1.12-.77,1.24,1.24,0,0,1,.1-.47c-.18,0-.18.15-.36.37s-.28.12-.52.29a1.4,1.4,0,0,1,.76-1,6.18,6.18,0,0,1,4.16.4,10.45,10.45,0,0,0-1.46-.08c-.6,0-.92,0-.92,0m5.29-16.2c-.31-.24-.52-.4-.84-.63-.29.2-.62.47-.83.64l.81.61.86-.62m-8.64,16.92c-.09.06-.17.34.15.35s.33-.29.33-.29-.34-.14-.48-.06m8.93,2.46a2,2,0,0,0-1.5-1.05,3.35,3.35,0,0,1,.53.88,4.22,4.22,0,0,1-.9.18,2,2,0,0,0,1.87,0m-2-1.73a2.91,2.91,0,0,0-1.74-1,2,2,0,0,0,1.74,1m-.51-1c.31.31,1.3.73,1.85,1.24-.08-.84-.82-1.3-1.85-1.24m-.39,12.11a3.34,3.34,0,0,0,0,3.45s.78-2.36,0-3.45m1.89,6.73a5.48,5.48,0,0,0,1.39-3.64,8.42,8.42,0,0,1-1.5,1.89,6.38,6.38,0,0,1-1.25-1.15,4.93,4.93,0,0,0,1.36,2.9m-1.52-10.48a1.6,1.6,0,0,0-.39,2s1.24-1.33.39-2m1.45-4.1c.32.34,1.38.58,2,1.13a1.41,1.41,0,0,0-2-1.13m1.57,2.7a1.8,1.8,0,0,0-1.63-2c-.1.74,1.16,1.2,1.63,2m-.57,2c-.67.72,0,2.15.34,3.44.35-.63.77-2.76-.34-3.44m3.53,3.28a4.64,4.64,0,0,1-1.14,2.43,8,8,0,0,1-1.13-1.18,5,5,0,0,0,1.17,2.8s1.49-1.2,1.1-4.05m-1.87-6.09c-.15.8,1.13,2,1.13,2a2,2,0,0,0-1.13-2M540,276.4c-.12.93,1,3.05,1,3.22a3,3,0,0,0-1-3.22m-8.44,11a5.2,5.2,0,0,0,.68-3.78,3,3,0,0,1-1.09,2.14,2.54,2.54,0,0,1-1-1.19,3.47,3.47,0,0,0,1.37,2.83m-1-11.18a2.05,2.05,0,0,0-.57,3.05,10.68,10.68,0,0,0,.57-3.05m-.82,3.8c-1.12,1.39.6,3.13.59,3.15s.14-2.63-.59-3.15m-4.14,5.48a9.62,9.62,0,0,0-.82-3.59,6.58,6.58,0,0,0,.82,3.59m1.42-7.27c.46-1.66,1.39-2.6,1.71-3.57-1.66,1.18-2,3-1.71,3.57m.73,4.28a10.53,10.53,0,0,1-.18,2.12,2.43,2.43,0,0,1-1-.73,8.43,8.43,0,0,0,1.62,2.29c.16-1.27.21-2.82-.41-3.68m-1.17,3.11c-.39,1.65,1.26,3.24,1.27,3.27a5.17,5.17,0,0,0-1.27-3.27m.49,4.43a8.44,8.44,0,0,0,1.46,1.85c-.71-1.07-1.27-3.06-2-3.6a3.59,3.59,0,0,0,.51,1.75m-2-9.66c-.12-.82.88-1.57.54-2.88a2.6,2.6,0,0,0-.54,2.88M531,291.57a5.34,5.34,0,0,1-1.5-1.56,6.85,6.85,0,0,0,2,3.13,5.39,5.39,0,0,0,.29-4.17,8.37,8.37,0,0,1-.83,2.6m4.4-4.17a5.23,5.23,0,0,1-1.45,2.38,4.67,4.67,0,0,1-1.05-1.48,3.13,3.13,0,0,0,1.31,3,4.88,4.88,0,0,0,1.19-3.86m2.19,4.34a4.47,4.47,0,0,0,1.09-4.13,9,9,0,0,0-1.09,4.13m-2.45,2.18a6.57,6.57,0,0,0,.89-3.43c-.65.56-.95,2.55-.89,3.43m5.29-8c.45-.72,1.08-1.76.56-2.43a18.57,18.57,0,0,0-.56,2.43m-3.34,2.33a5.64,5.64,0,0,0,1.64-3.68,3.62,3.62,0,0,1-1.65,1.95,2.53,2.53,0,0,1-.92-1.28,3.42,3.42,0,0,0,.93,3m3.13-4.61s1.09-1.91.47-2.95c-.72.16-.45,3-.47,2.95m-.05,3.21c-.66.88-.84,2.88-1,3.55.24-.21,1.44-3,1-3.55m-7.56,9.66a3.61,3.61,0,0,0-.19-3,3.84,3.84,0,0,0,.19,3m1.06,2.83a3.12,3.12,0,0,0-.06-2.64,3.32,3.32,0,0,0,.06,2.64m1.38-.91a6.84,6.84,0,0,0,.94-3.81c-.71.7-1,2.91-.94,3.81m-4.34-1.75a8.93,8.93,0,0,0-1.13-3.1,3.63,3.63,0,0,0,1.13,3.1m8.51,1.57a1.44,1.44,0,0,0-.19-.72c-.13.65-1,2-.8,3.6.39-1.41,1.48-1.7,1.77-3a1.39,1.39,0,0,0,.69.25,9.76,9.76,0,0,1-.65-2.14,4.86,4.86,0,0,1-.82,2M527.72,301c.2-1.59-.66-3-.8-3.6a1.46,1.46,0,0,0-.18.71,4.85,4.85,0,0,1-.83-2,9.52,9.52,0,0,1-.65,2.15,1.65,1.65,0,0,0,.7-.25c.28,1.31,1.37,1.6,1.76,3m-8.62-14.8a1.75,1.75,0,0,1-.83-.51,2.61,2.61,0,0,0,1.27,1.59s.84-2-1.08-4.91c1,3,.64,3.83.64,3.83m-1.14,3a1.89,1.89,0,0,1-.75-.59,2.32,2.32,0,0,0,1.19,1.68c.38-1.22.61-2.18-1.11-5.76,1.18,3.51.67,4.67.67,4.67m-7-1.7a6.32,6.32,0,0,1-.58-2.8,4.94,4.94,0,0,0,.4,3.46,1.26,1.26,0,0,0,.54-1c-.06.15-.36.34-.36.34m1.07-1a7.59,7.59,0,0,1-.73-3.12,5.67,5.67,0,0,0,.62,3.92,1.44,1.44,0,0,0,.57-1.16c-.06.17-.46.36-.46.36m4.65-6.17c-.47-.52-1.21-1.3-1.95-4.09a8.29,8.29,0,0,0,2.15,5.34,4.56,4.56,0,0,0-.1-3.66,9.32,9.32,0,0,1-.1,2.41m-1.24,2a9.94,9.94,0,0,1-1.69-4.6,8.91,8.91,0,0,0,1.79,5.75,3.16,3.16,0,0,0,.15-3,5,5,0,0,1-.25,1.86m-1.16,1.48c-.39-.58-.93-1.37-1.42-4.81-.12,3.13.71,5,1.46,5.86a2.52,2.52,0,0,0,.49-2.1,3.06,3.06,0,0,1-.53,1.05m-1.14,1.48c-.32-.53-.57-1.16-.88-4.23-.22,2.78.23,4.48.87,5.28a2.23,2.23,0,0,0,.51-1.86,2.14,2.14,0,0,1-.5.81m41.9,1.85a1.26,1.26,0,0,0,.55,1,4.94,4.94,0,0,0,.4-3.46,6.38,6.38,0,0,1-.59,2.8s-.3-.19-.36-.34m-1.16-1.06a1.42,1.42,0,0,0,.57,1.16,5.64,5.64,0,0,0,.61-3.92,7.74,7.74,0,0,1-.72,3.12s-.4-.19-.46-.36m-4.19-5.81a9.53,9.53,0,0,1-.11-2.41,4.6,4.6,0,0,0-.09,3.66,8.29,8.29,0,0,0,2.15-5.34c-.75,2.79-1.48,3.57-2,4.09m1.23,2a5.24,5.24,0,0,1-.25-1.86,3.18,3.18,0,0,0,.16,3,9,9,0,0,0,1.79-5.75,9.78,9.78,0,0,1-1.7,4.6m2.58-3.33c-.48,3.44-1,4.23-1.41,4.81a3.06,3.06,0,0,1-.53-1,2.49,2.49,0,0,0,.49,2.1c.75-.87,1.57-2.73,1.45-5.86m.61,2.06c-.31,3.07-.56,3.7-.89,4.23a2.14,2.14,0,0,1-.5-.81,2.27,2.27,0,0,0,.52,1.86c.64-.8,1.09-2.5.87-5.28m-6.88,5.18s-.41-.79.65-3.83c-1.93,2.89-1.09,4.91-1.09,4.91a2.61,2.61,0,0,0,1.27-1.59,1.75,1.75,0,0,1-.83.51m1.89,2.45a2.34,2.34,0,0,1-1.18,1.68c-.38-1.22-.61-2.19,1.1-5.76-1.17,3.51-.66,4.67-.66,4.67a1.83,1.83,0,0,0,.74-.59" transform="translate(-212.33 -241.6)"/><path class="cls-4" d="M224,273.89a4.75,4.75,0,0,1-1.33,3.54,5.15,5.15,0,0,1-3.8,1.31,5.09,5.09,0,0,1-2.39-.61,7.4,7.4,0,0,1-2.1-1.62,8.45,8.45,0,0,1-1.5-2.3,6.29,6.29,0,0,1-.58-2.64,7.28,7.28,0,0,1,.16-1.49,6.61,6.61,0,0,1,.58-1.64,9.22,9.22,0,0,1,1.13-1.72A11,11,0,0,1,216,265l1,1.32a8.24,8.24,0,0,0-2.43,2.75,5.82,5.82,0,0,0-.63,2.46,4.83,4.83,0,0,0,.49,2.14,6.72,6.72,0,0,0,1.22,1.77,6.41,6.41,0,0,0,1.63,1.2,3.81,3.81,0,0,0,1.73.45,3.5,3.5,0,0,0,2.42-.77,2.84,2.84,0,0,0,.87-2.25V257.33H224v11.22a11.87,11.87,0,0,0,.13,1.85,5,5,0,0,0,.36,1.24,2.1,2.1,0,0,0,.46.69.76.76,0,0,0,.5.21h.16v1.67h-.19a1.65,1.65,0,0,1-.69-.16,2.55,2.55,0,0,1-.73-.51Z" transform="translate(-212.33 -241.6)"/><path class="cls-4" d="M231.46,274.21h-5.79a1.11,1.11,0,0,1-.8-.29.62.62,0,0,1,0-1.09,1.16,1.16,0,0,1,.8-.29h5.79Z" transform="translate(-212.33 -241.6)"/><path class="cls-4" d="M237.25,274.21h-5.79a1.11,1.11,0,0,1-.8-.29.62.62,0,0,1,0-1.09,1.16,1.16,0,0,1,.8-.29h5.79Z" transform="translate(-212.33 -241.6)"/><path class="cls-4" d="M243,274.21h-5.78a1.14,1.14,0,0,1-.81-.29.62.62,0,0,1,0-1.09,1.18,1.18,0,0,1,.81-.29H243Z" transform="translate(-212.33 -241.6)"/><path class="cls-4" d="M251.43,260.24a1,1,0,0,1-.33.77,1.09,1.09,0,0,1-1.86-.77,1.1,1.1,0,0,1,.32-.78,1.06,1.06,0,0,1,1.54,0,1.07,1.07,0,0,1,.33.78m-5.6,8.52a4.61,4.61,0,0,0,.68,2.52,2.55,2.55,0,0,0,1.67,1.26h.67a2.55,2.55,0,0,0,1.67-1.26,4.53,4.53,0,0,0,.68-2.52,5.12,5.12,0,0,0-.21-1.47,4.11,4.11,0,0,0-.58-1.21,3,3,0,0,0-.85-.82,1.83,1.83,0,0,0-1-.31,1.91,1.91,0,0,0-1,.31,2.83,2.83,0,0,0-.87.82,4.11,4.11,0,0,0-.58,1.21,5.12,5.12,0,0,0-.21,1.47m2-8.52a1.1,1.1,0,0,1-1.86.77,1,1,0,0,1-.32-.77,1.06,1.06,0,0,1,.32-.78,1.06,1.06,0,0,1,1.54,0,1.1,1.1,0,0,1,.32.78m-4.76,14a1.11,1.11,0,0,1-.8-.29.62.62,0,0,1,0-1.09,1.16,1.16,0,0,1,.8-.29h2.32a5.8,5.8,0,0,1-.87-1.7,6.63,6.63,0,0,1-.32-2.06,6.41,6.41,0,0,1,.34-2.12,5.69,5.69,0,0,1,.93-1.76,4.54,4.54,0,0,1,1.4-1.19,3.61,3.61,0,0,1,1.7-.43,3.57,3.57,0,0,1,1.69.43,4.71,4.71,0,0,1,1.38,1.19,5.69,5.69,0,0,1,.93,1.76,6.41,6.41,0,0,1,.34,2.12,6.63,6.63,0,0,1-.32,2.06,5.8,5.8,0,0,1-.87,1.7H254v1.67Z" transform="translate(-212.33 -241.6)"/><path class="cls-4" d="M259.78,274.21H254a1.14,1.14,0,0,1-.81-.29.62.62,0,0,1,0-1.09,1.18,1.18,0,0,1,.81-.29h5.78Z" transform="translate(-212.33 -241.6)"/><path class="cls-4" d="M265.57,274.21h-5.79a1.11,1.11,0,0,1-.8-.29.62.62,0,0,1,0-1.09,1.16,1.16,0,0,1,.8-.29h5.79Z" transform="translate(-212.33 -241.6)"/><path class="cls-4" d="M271.36,274.21h-5.79a1.11,1.11,0,0,1-.8-.29.62.62,0,0,1,0-1.09,1.16,1.16,0,0,1,.8-.29h5.79Z" transform="translate(-212.33 -241.6)"/><path class="cls-4" d="M274.12,262.06a1.06,1.06,0,0,1-.77-.32A1.07,1.07,0,0,1,273,261a1,1,0,0,1,.32-.76,1.11,1.11,0,0,1,1.54,0,1,1,0,0,1,.33.76,1,1,0,0,1-.33.77,1.06,1.06,0,0,1-.77.32m-2.76,12.15a1.15,1.15,0,0,1-.81-.29.62.62,0,0,1,0-1.09,1.2,1.2,0,0,1,.81-.29h1.93v-8.2H275v8.2h1.45v1.67Z" transform="translate(-212.33 -241.6)"/><path class="cls-4" d="M282.19,274.21H276.4a1.13,1.13,0,0,1-.8-.29.62.62,0,0,1,0-1.09,1.17,1.17,0,0,1,.8-.29h5.79Z" transform="translate(-212.33 -241.6)"/><path class="cls-4" d="M288,274.21h-5.79a1.11,1.11,0,0,1-.8-.29.62.62,0,0,1,0-1.09,1.16,1.16,0,0,1,.8-.29H288Z" transform="translate(-212.33 -241.6)"/><path class="cls-4" d="M293.77,274.21H288a1.11,1.11,0,0,1-.8-.29.62.62,0,0,1,0-1.09,1.16,1.16,0,0,1,.8-.29h5.79Z" transform="translate(-212.33 -241.6)"/><path class="cls-4" d="M295.21,257.24h1.67v17h-3.11a1.18,1.18,0,0,1-.81-.29.62.62,0,0,1,0-1.09,1.18,1.18,0,0,1,.81-.29h1.44Z" transform="translate(-212.33 -241.6)"/><rect class="cls-4" x="87.13" y="15.73" width="1.67" height="16.88"/><path class="cls-4" d="M309.68,272.54v-7.46a7.56,7.56,0,0,0-3.42,1.85,4.08,4.08,0,0,0-1.28,3,2.25,2.25,0,0,0,1,1.93,5.26,5.26,0,0,0,3.07.71Zm1.67,2.51a15.09,15.09,0,0,1-.16,2.25,5.74,5.74,0,0,1-.61,1.94,3.71,3.71,0,0,1-1.31,1.39,4.25,4.25,0,0,1-2.26.53v-1.68a2.52,2.52,0,0,0,1.54-.4,2.32,2.32,0,0,0,.81-1.08,5.28,5.28,0,0,0,.3-1.57c0-.6,0-1.22,0-1.86v-.36h-.9a6.28,6.28,0,0,1-4.05-1.16,3.76,3.76,0,0,1-1.45-3.08,5.55,5.55,0,0,1,.6-2.54,6.69,6.69,0,0,1,1.66-2.11,8.74,8.74,0,0,1,2.55-1.49,11.66,11.66,0,0,1,3.23-.74Z" transform="translate(-212.33 -241.6)"/><path class="cls-4" d="M329.81,262.54a1.1,1.1,0,0,1-.78-.32,1.1,1.1,0,0,1,.78-1.87,1,1,0,0,1,.77.33,1.09,1.09,0,0,1,0,1.54,1.07,1.07,0,0,1-.77.32m-3.64,0a1.09,1.09,0,0,1-.77-1.86,1.09,1.09,0,1,1,1.54,1.54,1.06,1.06,0,0,1-.77.32m7.59,1.77h1.67v9.9h-9.58a7.41,7.41,0,0,1-5.22-1.75,6.64,6.64,0,0,1-1.92-5.16c0-.43,0-.86.05-1.29a9.27,9.27,0,0,1,.21-1.38l1.64.29a12,12,0,0,0-.18,1.22c0,.39,0,.76,0,1.13a5.31,5.31,0,0,0,1.35,3.9,5.41,5.41,0,0,0,4,1.37h8Z" transform="translate(-212.33 -241.6)"/><polygon class="cls-4" points="125.67 32.61 125.67 15.73 127.34 15.73 127.34 30.94 128.79 30.94 128.79 32.61 125.67 32.61"/><path class="cls-4" d="M346.91,274.21h-5.79a1.11,1.11,0,0,1-.8-.29.62.62,0,0,1,0-1.09,1.16,1.16,0,0,1,.8-.29h5.79Z" transform="translate(-212.33 -241.6)"/><path class="cls-4" d="M352.7,274.21h-5.79a1.15,1.15,0,0,1-.81-.29.62.62,0,0,1,0-1.09,1.2,1.2,0,0,1,.81-.29h5.79Z" transform="translate(-212.33 -241.6)"/><path class="cls-4" d="M358.48,274.21H352.7a1.14,1.14,0,0,1-.81-.29.62.62,0,0,1,0-1.09,1.18,1.18,0,0,1,.81-.29h5.78Z" transform="translate(-212.33 -241.6)"/><path class="cls-4" d="M363.63,278.78a1.11,1.11,0,0,1-1.1-1.1,1,1,0,0,1,.33-.77,1.06,1.06,0,0,1,.77-.32,1.09,1.09,0,0,1,1.09,1.09,1.1,1.1,0,0,1-.32.78,1.07,1.07,0,0,1-.77.32m-3.28,0a1.11,1.11,0,0,1-1.1-1.1,1,1,0,0,1,.33-.77,1.06,1.06,0,0,1,.77-.32,1.09,1.09,0,0,1,1.09,1.09,1.1,1.1,0,0,1-.32.78,1.07,1.07,0,0,1-.77.32m-1.87-4.57a1.11,1.11,0,0,1-.8-.29.62.62,0,0,1,0-1.09,1.16,1.16,0,0,1,.8-.29h4.34v-8.2h1.67v9.87Z" transform="translate(-212.33 -241.6)"/><path class="cls-4" d="M367,264.63a8,8,0,0,1,1.64-1,5.46,5.46,0,0,1,2.38-.48,4.62,4.62,0,0,1,2.25.53,4.7,4.7,0,0,1,1.6,1.4,6.26,6.26,0,0,1,1,2,8.22,8.22,0,0,1,.31,2.26,10.06,10.06,0,0,1-.15,1.77,10.93,10.93,0,0,1-.38,1.48h1.77v1.67H366.94v-1.67h6.91a12.33,12.33,0,0,0,.42-1.29,7.36,7.36,0,0,0,.22-2,6.11,6.11,0,0,0-.24-1.72,4.84,4.84,0,0,0-.67-1.43,3.46,3.46,0,0,0-1.1-1,3,3,0,0,0-1.46-.37,4.27,4.27,0,0,0-1.38.24,6.47,6.47,0,0,0-1.61.89Z" transform="translate(-212.33 -241.6)"/><path class="cls-4" d="M383.21,274.21h-5.79a1.15,1.15,0,0,1-.81-.29.62.62,0,0,1,0-1.09,1.2,1.2,0,0,1,.81-.29h5.79Z" transform="translate(-212.33 -241.6)"/><path class="cls-4" d="M389,274.21h-5.78a1.14,1.14,0,0,1-.81-.29.62.62,0,0,1,0-1.09,1.18,1.18,0,0,1,.81-.29H389Z" transform="translate(-212.33 -241.6)"/><path class="cls-4" d="M394.78,274.21H389a1.11,1.11,0,0,1-.8-.29.62.62,0,0,1,0-1.09,1.16,1.16,0,0,1,.8-.29h5.79Z" transform="translate(-212.33 -241.6)"/><path class="cls-4" d="M396.23,257.24h1.67v15.3h1.44v1.67h-4.56a1.16,1.16,0,0,1-.8-.29.62.62,0,0,1,0-1.09,1.16,1.16,0,0,1,.8-.29h1.45Z" transform="translate(-212.33 -241.6)"/><path class="cls-4" d="M405.13,274.21h-5.79a1.13,1.13,0,0,1-.8-.29.62.62,0,0,1,0-1.09,1.17,1.17,0,0,1,.8-.29h5.79Z" transform="translate(-212.33 -241.6)"/><path class="cls-4" d="M406.77,277.72a1.1,1.1,0,0,1,.32-.78,1.07,1.07,0,0,1,.77-.32,1.09,1.09,0,0,1,1.1,1.1,1.07,1.07,0,0,1-.32.77,1.1,1.1,0,0,1-.78.32,1.09,1.09,0,0,1-1.09-1.09m.29-5.18v-8.2h1.67v8.2h1.45v1.67h-5.05a1.11,1.11,0,0,1-.8-.29.62.62,0,0,1,0-1.09,1.16,1.16,0,0,1,.8-.29Z" transform="translate(-212.33 -241.6)"/><path class="cls-4" d="M416,274.21h-5.79a1.11,1.11,0,0,1-.8-.29.62.62,0,0,1,0-1.09,1.16,1.16,0,0,1,.8-.29H416Z" transform="translate(-212.33 -241.6)"/><path class="cls-4" d="M417.44,257.24h1.68v17H416a1.2,1.2,0,0,1-.81-.29.62.62,0,0,1,0-1.09,1.2,1.2,0,0,1,.81-.29h1.44Z" transform="translate(-212.33 -241.6)"/><rect class="cls-4" x="209.36" y="15.73" width="1.67" height="16.88"/><path class="cls-4" d="M438.76,259.9a1.1,1.1,0,0,1-.32.78,1.07,1.07,0,0,1-.77.32,1.09,1.09,0,0,1-1.1-1.1,1.07,1.07,0,0,1,.32-.77,1.1,1.1,0,0,1,.78-.32,1.09,1.09,0,0,1,1.09,1.09m-3.63,0A1.09,1.09,0,0,1,434,261a1.07,1.07,0,0,1-.77-.32,1.1,1.1,0,0,1-.32-.78,1.09,1.09,0,0,1,1.09-1.09,1.1,1.1,0,0,1,.78.32,1.07,1.07,0,0,1,.32.77m1.73,12.58V265c-.38.17-.83.39-1.35.67a8.31,8.31,0,0,0-1.44,1,6.34,6.34,0,0,0-1.16,1.37,3.23,3.23,0,0,0-.48,1.74,1.91,1.91,0,0,0,.42,1.25,3.19,3.19,0,0,0,1.06.84,5.2,5.2,0,0,0,1.38.45,8.65,8.65,0,0,0,1.38.13Zm1.68,1.73h-1.77a8.92,8.92,0,0,1-1.88-.22,7,7,0,0,1-2-.74,4.85,4.85,0,0,1-1.55-1.37,3.45,3.45,0,0,1-.63-2.11,4.82,4.82,0,0,1,.45-2.1,7.16,7.16,0,0,1,1.16-1.71,8.91,8.91,0,0,1,1.59-1.33,13.54,13.54,0,0,1,1.76-1,12.59,12.59,0,0,1,1.62-.64,11.56,11.56,0,0,1,1.21-.34Z" transform="translate(-212.33 -241.6)"/><path class="cls-4" d="M443.1,275a17.35,17.35,0,0,1-.13,2.15,5.88,5.88,0,0,1-.58,2,3.68,3.68,0,0,1-1.31,1.46,4.26,4.26,0,0,1-2.35.56v-1.67a2.6,2.6,0,0,0,1.48-.38,2.5,2.5,0,0,0,.82-1,4.42,4.42,0,0,0,.33-1.43c.05-.53.07-1.09.07-1.67V264.31h1.67v8.23h1.45v1.67H443.1Z" transform="translate(-212.33 -241.6)"/><path class="cls-4" d="M450.33,274.21h-5.78a1.15,1.15,0,0,1-.81-.29.62.62,0,0,1,0-1.09,1.2,1.2,0,0,1,.81-.29h5.78Z" transform="translate(-212.33 -241.6)"/><path class="cls-4" d="M456.12,274.21h-5.79a1.11,1.11,0,0,1-.8-.29.62.62,0,0,1,0-1.09,1.16,1.16,0,0,1,.8-.29h5.79Z" transform="translate(-212.33 -241.6)"/><path class="cls-4" d="M461.91,274.21h-5.79a1.11,1.11,0,0,1-.8-.29.62.62,0,0,1,0-1.09,1.16,1.16,0,0,1,.8-.29h5.79Z" transform="translate(-212.33 -241.6)"/><path class="cls-4" d="M467.15,260.34a3.46,3.46,0,0,0-1.39-.33,1.33,1.33,0,0,0-.67.16.65.65,0,0,0-.26.59.94.94,0,0,0,.48.89,2.33,2.33,0,0,0,1.19.28h.81v.84H463v-.84h1.38a.8.8,0,0,1-.26-.42,2.36,2.36,0,0,1-.12-.75,1.38,1.38,0,0,1,.54-1.24,2.12,2.12,0,0,1,1.19-.35,4.51,4.51,0,0,1,1.74.35Zm-2,4h1.67v9.9h-4.88a1.14,1.14,0,0,1-.81-.29.62.62,0,0,1,0-1.09,1.18,1.18,0,0,1,.81-.29h3.21Z" transform="translate(-212.33 -241.6)"/><rect class="cls-4" x="257.07" y="15.73" width="1.67" height="16.88"/><path class="cls-4" d="M473.26,264.63a7.48,7.48,0,0,1,1.64-1,5.39,5.39,0,0,1,2.37-.48,4.62,4.62,0,0,1,2.25.53,4.7,4.7,0,0,1,1.6,1.4,6.26,6.26,0,0,1,.95,2,8.23,8.23,0,0,1,.32,2.26,9,9,0,0,1-.15,1.67,11.53,11.53,0,0,1-.34,1.45,8.94,8.94,0,0,1-.43,1.11c-.15.31-.26.54-.35.69h-8v-1.67h6.91a12.33,12.33,0,0,0,.42-1.29,7.36,7.36,0,0,0,.22-2,6.11,6.11,0,0,0-.24-1.72,4.84,4.84,0,0,0-.67-1.43,3.46,3.46,0,0,0-1.1-1,3,3,0,0,0-1.46-.37,4.27,4.27,0,0,0-1.38.24,6.47,6.47,0,0,0-1.61.89Z" transform="translate(-212.33 -241.6)"/><path class="cls-4" d="M215.59,300.46h1.78a3.11,3.11,0,0,0,2.53-.89,4.85,4.85,0,0,0,.73-3v-3.05a4.44,4.44,0,0,0-.68-2.81,2.4,2.4,0,0,0-2-.84h-2.37ZM213.8,302V288.32H218a4.07,4.07,0,0,1,3.3,1.32q1.1,1.31,1.1,5.19c0,3.1-.41,5.06-1.25,5.9A5.12,5.12,0,0,1,217.4,302Z" transform="translate(-212.33 -241.6)"/><polygon class="cls-4" points="13.02 60.38 13.02 46.73 20.16 46.73 20.16 48.25 14.81 48.25 14.81 52.6 19.77 52.6 19.77 54.12 14.81 54.12 14.81 58.86 20.27 58.86 20.27 60.38 13.02 60.38"/><path class="cls-4" d="M236.86,289.84v4.57h1.95a2.31,2.31,0,0,0,1.76-.63,2.75,2.75,0,0,0,.05-3.34,1.92,1.92,0,0,0-1.51-.6Zm-1.79-1.52h4.12a3.89,3.89,0,0,1,2.74.93,3.81,3.81,0,0,1,1,3,3.68,3.68,0,0,1-1,2.74,3.79,3.79,0,0,1-2.77,1h-2.33V302h-1.79Z" transform="translate(-212.33 -241.6)"/><path class="cls-4" d="M247.38,297.18h4.35l-2.21-7.31Zm-3.21,4.8,4.3-13.66h2.24L255.16,302h-2l-1-3.28h-5.29l-1,3.28Z" transform="translate(-212.33 -241.6)"/><path class="cls-4" d="M258.79,294.19h2.57a1.64,1.64,0,0,0,1.36-.62,2.5,2.5,0,0,0,.51-1.65,2.31,2.31,0,0,0-.46-1.45,1.55,1.55,0,0,0-1.35-.63h-2.63ZM257,302V288.32h4.7a3.25,3.25,0,0,1,2.44.9,3.42,3.42,0,0,1,.88,2.52,2.92,2.92,0,0,1-2.57,3.16,2.42,2.42,0,0,1,1.64.72,3.45,3.45,0,0,1,.61,2.16,19.15,19.15,0,0,0,.51,4.2H263.4a4.23,4.23,0,0,1-.37-1.78c-.07-.92-.12-1.82-.16-2.72-.07-1.18-.74-1.76-2-1.76h-2.06V302Z" transform="translate(-212.33 -241.6)"/><polygon class="cls-4" points="54.02 46.73 62.94 46.73 62.94 48.25 59.38 48.25 59.38 60.38 57.59 60.38 57.59 48.25 54.02 48.25 54.02 46.73"/><polygon class="cls-4" points="64.78 46.73 67.61 46.73 71.14 58.25 74.68 46.73 77.56 46.73 77.56 60.38 75.77 60.38 75.77 48.32 71.92 60.38 70.28 60.38 66.43 48.22 66.43 60.38 64.78 60.38 64.78 46.73"/><polygon class="cls-4" points="80.58 60.38 80.58 46.73 87.72 46.73 87.72 48.25 82.37 48.25 82.37 52.6 87.33 52.6 87.33 54.12 82.37 54.12 82.37 58.86 87.83 58.86 87.83 60.38 80.58 60.38"/><polygon class="cls-4" points="90.19 46.73 92.68 46.73 98.06 58.52 98.06 46.73 99.62 46.73 99.62 60.38 97.22 60.38 91.75 48.49 91.75 60.38 90.19 60.38 90.19 46.73"/><polygon class="cls-4" points="101.52 46.73 110.44 46.73 110.44 48.25 106.87 48.25 106.87 60.38 105.08 60.38 105.08 48.25 101.52 48.25 101.52 46.73"/><path class="cls-4" d="M330.54,292.51v4.69a5.35,5.35,0,0,0,.54,2.71,2.13,2.13,0,0,0,2,.88A2.18,2.18,0,0,0,335,300a5,5,0,0,0,.6-2.84v-4.72a3.12,3.12,0,0,0-.67-2.17,2.39,2.39,0,0,0-1.85-.73c-1.67,0-2.51,1-2.51,3M328.75,297v-4.5a4.71,4.71,0,0,1,1.09-3.32,5,5,0,0,1,6.43,0,4.65,4.65,0,0,1,1.1,3.29V297a6.25,6.25,0,0,1-1,3.95,4.85,4.85,0,0,1-6.6,0,6.49,6.49,0,0,1-1-3.92" transform="translate(-212.33 -241.6)"/><polygon class="cls-4" points="127.94 60.38 127.94 46.73 134.78 46.73 134.78 48.25 129.73 48.25 129.73 52.6 134.5 52.6 134.5 54.12 129.73 54.12 129.73 60.38 127.94 60.38"/><polygon class="cls-4" points="140.76 46.73 143.58 46.73 147.11 58.25 150.66 46.73 153.53 46.73 153.53 60.38 151.74 60.38 151.74 48.32 147.89 60.38 146.25 60.38 142.4 48.22 142.4 60.38 140.76 60.38 140.76 46.73"/><path class="cls-4" d="M368.83,288.32h1.79v8.87a4.85,4.85,0,0,0,.6,2.78,2.21,2.21,0,0,0,1.9.82,2.26,2.26,0,0,0,1.93-.81,4.83,4.83,0,0,0,.61-2.8v-8.86h1.79V297a6,6,0,0,1-1.09,4,4,4,0,0,1-3.19,1.24A4.1,4.1,0,0,1,369.9,301a6.15,6.15,0,0,1-1.07-4Z" transform="translate(-212.33 -241.6)"/><polygon class="cls-4" points="168.27 46.73 170.76 46.73 176.14 58.52 176.14 46.73 177.7 46.73 177.7 60.38 175.29 60.38 169.83 48.49 169.83 60.38 168.27 60.38 168.27 46.73"/><rect class="cls-4" x="181.05" y="46.73" width="1.79" height="13.65"/><path class="cls-4" d="M404.68,298h1.79a4.67,4.67,0,0,1-1,3.27,3.9,3.9,0,0,1-3,1,4.18,4.18,0,0,1-3.11-1.11c-.73-.74-1.1-2.13-1.1-4.18v-4.06q0-4.87,4.33-4.88c2.46,0,3.7,1,3.7,3.14V292h-1.79v-.45c0-1.39-.67-2.08-2-2.08a2.34,2.34,0,0,0-1.77.7c-.45.46-.68,1.48-.68,3.07v3.94a5.68,5.68,0,0,0,.5,2.69,2,2,0,0,0,1.94.88,1.86,1.86,0,0,0,1.58-.75,3.4,3.4,0,0,0,.57-2.08" transform="translate(-212.33 -241.6)"/><rect class="cls-4" x="196.9" y="46.73" width="1.79" height="13.65"/><path class="cls-4" d="M416.3,289.84v4.57h1.95a2.12,2.12,0,0,0,2.34-2.3,2.42,2.42,0,0,0-.53-1.67,1.94,1.94,0,0,0-1.52-.6Zm-1.79-1.52h4.12a3.86,3.86,0,0,1,2.73.93,3.81,3.81,0,0,1,1,3,3.68,3.68,0,0,1-1,2.74,3.76,3.76,0,0,1-2.76,1H416.3V302h-1.79Z" transform="translate(-212.33 -241.6)"/><path class="cls-4" d="M426.82,297.18h4.34L429,289.87ZM423.6,302l4.3-13.66h2.24L434.59,302h-1.95l-1-3.28h-5.29l-1,3.28Z" transform="translate(-212.33 -241.6)"/><polygon class="cls-4" points="224.13 46.73 225.92 46.73 225.92 58.86 230.96 58.86 230.96 60.38 224.13 60.38 224.13 46.73"/><rect class="cls-4" x="232.78" y="46.73" width="1.79" height="13.65"/><polygon class="cls-4" points="236.6 46.73 245.52 46.73 245.52 48.25 241.95 48.25 241.95 60.38 240.16 60.38 240.16 48.25 236.6 48.25 236.6 46.73"/><rect class="cls-4" x="247.56" y="46.73" width="1.79" height="13.65"/><polygon class="cls-4" points="252.61 60.38 252.61 46.73 259.75 46.73 259.75 48.25 254.4 48.25 254.4 52.6 259.36 52.6 259.36 54.12 254.4 54.12 254.4 58.86 259.86 58.86 259.86 60.38 252.61 60.38"/><path class="cls-4" d="M474.1,298h1.79v.48a2.27,2.27,0,0,0,.61,1.68,2.41,2.41,0,0,0,1.81.62,2.46,2.46,0,0,0,1.67-.55,2,2,0,0,0,.64-1.63,2,2,0,0,0-.64-1.46,9.3,9.3,0,0,0-2.24-1.41,8.6,8.6,0,0,1-2.66-1.88,3.22,3.22,0,0,1-.68-2.07,3.53,3.53,0,0,1,1.06-2.68,4.15,4.15,0,0,1,3-1,4,4,0,0,1,2.86.92,3.42,3.42,0,0,1,.95,2.55V292h-1.79c0-1.65-.71-2.48-2.12-2.48a2.22,2.22,0,0,0-1.59.54,1.88,1.88,0,0,0-.57,1.44,2.17,2.17,0,0,0,.87,1.69,11.68,11.68,0,0,0,2.17,1.28,7.48,7.48,0,0,1,2.35,1.66,3.58,3.58,0,0,1,.83,2.33q0,3.76-4.39,3.77a4.05,4.05,0,0,1-2.9-1,3.74,3.74,0,0,1-1-2.83Z" transform="translate(-212.33 -241.6)"/><path class="cls-4" d="M349.73,320h4.34l-2.2-7.31Zm-3.22,4.8,4.31-13.66h2.23l4.46,13.66h-2l-1-3.28h-5.28l-1,3.28Z" transform="translate(-212.33 -241.6)"/><polygon class="cls-4" points="147.15 69.52 149.64 69.52 155.02 81.31 155.02 69.52 156.57 69.52 156.57 83.18 154.17 83.18 148.71 71.29 148.71 83.18 147.15 83.18 147.15 69.52"/><path class="cls-4" d="M373.89,323.25h1.77a3.08,3.08,0,0,0,2.53-.89,4.81,4.81,0,0,0,.73-3v-3a4.49,4.49,0,0,0-.67-2.81,2.42,2.42,0,0,0-2-.84h-2.36Zm-1.79,1.53V311.12h4.21a4.07,4.07,0,0,1,3.3,1.32c.74.87,1.1,2.6,1.1,5.19,0,3.09-.41,5.06-1.25,5.89a5.07,5.07,0,0,1-3.76,1.26Z" transform="translate(-212.33 -241.6)"/><polygon class="cls-4" points="174.3 69.52 183.22 69.52 183.22 71.04 179.65 71.04 179.65 83.18 177.86 83.18 177.86 71.04 174.3 71.04 174.3 69.52"/><path class="cls-4" d="M399.13,317h2.57a1.64,1.64,0,0,0,1.36-.62,2.5,2.5,0,0,0,.51-1.65,2.41,2.41,0,0,0-.45-1.46,1.6,1.6,0,0,0-1.36-.62h-2.63Zm-1.79,7.79V311.12H402a3.23,3.23,0,0,1,2.44.9,3.4,3.4,0,0,1,.88,2.51,2.92,2.92,0,0,1-2.57,3.17,2.35,2.35,0,0,1,1.64.72,3.5,3.5,0,0,1,.62,2.15,18,18,0,0,0,.51,4.21h-1.82a4.28,4.28,0,0,1-.37-1.79c-.06-.91-.12-1.82-.16-2.71q-.1-1.77-2-1.77h-2.07v6.27Z" transform="translate(-212.33 -241.6)"/><path class="cls-4" d="M409.9,320h4.34L412,312.67Zm-3.22,4.8,4.3-13.66h2.24l4.45,13.66h-1.95l-1-3.28h-5.29l-1,3.28Z" transform="translate(-212.33 -241.6)"/><polygon class="cls-4" points="207.32 69.52 209.8 69.52 215.18 81.31 215.18 69.52 216.74 69.52 216.74 83.18 214.34 83.18 208.87 71.29 208.87 83.18 207.32 83.18 207.32 69.52"/><path class="cls-4" d="M431.86,320.76h1.79v.48a2.27,2.27,0,0,0,.62,1.68,2.41,2.41,0,0,0,1.81.62,2.47,2.47,0,0,0,1.67-.55,2.09,2.09,0,0,0,.64-1.63,2,2,0,0,0-.64-1.46,9.52,9.52,0,0,0-2.24-1.41,8.47,8.47,0,0,1-2.66-1.88,3.24,3.24,0,0,1-.69-2.08,3.55,3.55,0,0,1,1.07-2.68,4.14,4.14,0,0,1,3-1,3.94,3.94,0,0,1,2.86.93,3.38,3.38,0,0,1,1,2.55v.53h-1.79q0-2.49-2.13-2.49a2.21,2.21,0,0,0-1.58.54,1.87,1.87,0,0,0-.58,1.45,2.17,2.17,0,0,0,.87,1.69,12.68,12.68,0,0,0,2.17,1.28,7.21,7.21,0,0,1,2.35,1.66,3.51,3.51,0,0,1,.84,2.33c0,2.51-1.47,3.76-4.39,3.76a4,4,0,0,1-2.9-1,3.72,3.72,0,0,1-1-2.83Z" transform="translate(-212.33 -241.6)"/><path class="cls-4" d="M444.79,312.64v4.57h1.95a2.27,2.27,0,0,0,1.75-.64,2.34,2.34,0,0,0,.59-1.66,2.42,2.42,0,0,0-.53-1.67,1.94,1.94,0,0,0-1.52-.6ZM443,311.12h4.12a3.86,3.86,0,0,1,2.73.93,3.81,3.81,0,0,1,1,3,3.66,3.66,0,0,1-1,2.73,3.77,3.77,0,0,1-2.76,1h-2.33v6H443Z" transform="translate(-212.33 -241.6)"/><path class="cls-4" d="M455.07,315.3V320a5.37,5.37,0,0,0,.54,2.71,2.15,2.15,0,0,0,2,.88,2.19,2.19,0,0,0,1.91-.82,5,5,0,0,0,.6-2.85v-4.71a3.05,3.05,0,0,0-.68-2.17,2.37,2.37,0,0,0-1.84-.73c-1.68,0-2.52,1-2.52,3m-1.79,4.54v-4.5a4.7,4.7,0,0,1,1.1-3.32,4.94,4.94,0,0,1,6.43,0,4.64,4.64,0,0,1,1.09,3.28v4.54a6.18,6.18,0,0,1-1,4,4.87,4.87,0,0,1-6.59,0,6.42,6.42,0,0,1-1-3.92" transform="translate(-212.33 -241.6)"/><path class="cls-4" d="M466.71,317h2.57a1.64,1.64,0,0,0,1.36-.62,2.5,2.5,0,0,0,.51-1.65,2.35,2.35,0,0,0-.46-1.46,1.57,1.57,0,0,0-1.35-.62h-2.63Zm-1.79,7.79V311.12h4.7a3.25,3.25,0,0,1,2.44.9,3.4,3.4,0,0,1,.88,2.51,2.93,2.93,0,0,1-2.57,3.17,2.37,2.37,0,0,1,1.64.72,3.44,3.44,0,0,1,.61,2.15,19.17,19.17,0,0,0,.51,4.21h-1.81A4.28,4.28,0,0,1,471,323c-.07-.91-.12-1.82-.16-2.71-.07-1.18-.74-1.77-2-1.77h-2.06v6.27Z" transform="translate(-212.33 -241.6)"/><polygon class="cls-4" points="261.95 69.52 270.86 69.52 270.86 71.04 267.3 71.04 267.3 83.18 265.51 83.18 265.51 71.04 261.95 71.04 261.95 69.52"/></svg>